<?xml version="1.0" encoding="UTF-8" standalone="no"?>
<!-- Created with Inkscape (http://www.inkscape.org/) -->

<svg
   xmlns:dc="http://purl.org/dc/elements/1.1/"
   xmlns:cc="http://creativecommons.org/ns#"
   xmlns:rdf="http://www.w3.org/1999/02/22-rdf-syntax-ns#"
   xmlns:svg="http://www.w3.org/2000/svg"
   xmlns="http://www.w3.org/2000/svg"
   xmlns:sodipodi="http://sodipodi.sourceforge.net/DTD/sodipodi-0.dtd"
   xmlns:inkscape="http://www.inkscape.org/namespaces/inkscape"
   id="svg2"
   version="1.1"
   inkscape:version="0.48.5 r10040"
   width="438.99677"
   height="439.05499"
   xml:space="preserve"
   sodipodi:docname="CoughDropLogoFinal.pdf"><metadata
     id="metadata8"><rdf:RDF><cc:Work
         rdf:about=""><dc:format>image/svg+xml</dc:format><dc:type
           rdf:resource="http://purl.org/dc/dcmitype/StillImage" /><dc:title></dc:title></cc:Work></rdf:RDF></metadata><defs
     id="defs6"><clipPath
       clipPathUnits="userSpaceOnUse"
       id="clipPath16"><path
         d="M 0,612 792,612 792,0 0,0 0,612 z"
         id="path18"
         inkscape:connector-curvature="0" /></clipPath><clipPath
       clipPathUnits="userSpaceOnUse"
       id="clipPath24"><path
         d="m 527.939,502.574 130.009,0 0,-283.446 -130.009,0 0,283.446 z"
         id="path26"
         inkscape:connector-curvature="0" /></clipPath><clipPath
       clipPathUnits="userSpaceOnUse"
       id="clipPath40"><path
         d="m 574.792,430.29 165.998,0 0,-278.96 -165.998,0 0,278.96 z"
         id="path42"
         inkscape:connector-curvature="0" /></clipPath><clipPath
       clipPathUnits="userSpaceOnUse"
       id="clipPath56"><path
         d="m 453.433,501.654 116.612,0 0,-255.767 -116.612,0 0,255.767 z"
         id="path58"
         inkscape:connector-curvature="0" /></clipPath></defs><sodipodi:namedview
     pagecolor="#ffffff"
     bordercolor="#666666"
     borderopacity="1"
     objecttolerance="10"
     gridtolerance="10"
     guidetolerance="10"
     inkscape:pageopacity="0"
     inkscape:pageshadow="2"
     inkscape:window-width="1344"
     inkscape:window-height="802"
     id="namedview4"
     showgrid="false"
     fit-margin-top="0"
     fit-margin-left="40.5"
     fit-margin-right="40.5"
     fit-margin-bottom="0"
     inkscape:zoom="1.2339869"
     inkscape:cx="175.47132"
     inkscape:cy="257.18454"
     inkscape:window-x="104"
     inkscape:window-y="50"
     inkscape:window-maximized="0"
     inkscape:current-layer="g10" /><g
     id="g10"
     inkscape:groupmode="layer"
     inkscape:label="CoughDropLogoFinal"
     transform="matrix(1.25,0,0,-1.25,-526.29112,628.21788)"><g
       id="g22" /><path
       d="m 655.9706,348.1133 c 7.729,39.422 -7.838,76.561 -35.549,89.412 l 31.007,35.555 c 5.855,6.713 3.953,15.092 -4.227,18.619 l -53.589,10.875 c -8.901,-0.381 -13.82,-7.588 -10.934,-16.016 l 15.18,-44.316 c -30.988,-0.696 -60.107,-29.451 -67.942,-69.416 -7.836,-39.966 8.27,-77.585 36.702,-89.931 l -30.79,-35.304 c -5.855,-6.715 -4.079,-15.371 3.945,-19.238 l 53.861,-9.222 c 8.906,-0.188 13.831,6.553 10.945,14.981 l -15.288,44.631 c 30.512,1.436 58.95,29.948 66.679,69.37"
       style="fill:#f2b367;fill-opacity:1;fill-rule:nonzero;stroke:none"
       id="path34"
       inkscape:connector-curvature="0" /><g
       id="g38" /><path
       d="m 715.83918,266.7172 c 14.969,37.279 6.63,76.675 -18.188,94.485 l 37.113,29.124 c 7.009,5.499 6.707,14.086 -0.668,19.081 l -50.607,20.712 c -8.815,1.291 -14.996,-4.868 -13.738,-13.686 l 6.618,-46.376 c -30.57,5.116 -64.556,-17.682 -79.732,-55.473 -15.177,-37.793 -6.395,-77.763 19.224,-95.211 l -36.853,-28.919 c -7.008,-5.499 -6.884,-14.335 0.275,-19.635 l 51.183,-19.14 c 8.714,-1.851 14.813,3.85 13.555,12.668 l -6.665,46.704 c 30.242,-4.299 63.513,18.387 78.483,55.666"
       style="fill:#e86060;fill-opacity:1;fill-rule:nonzero;stroke:none"
       id="path50"
       inkscape:connector-curvature="0" /><g
       id="g54" /><path
       d="m 568.706,383.6137 c -6.031,35.631 -30.94,61.934 -58.346,63.937 l 14.787,39.78 c 2.793,7.511 -1.472,13.956 -9.477,14.323 l -48.554,-7.888 c -7.369,-3.151 -9.217,-10.781 -4.109,-16.954 l 26.867,-32.466 c -25.856,-10.44 -41.216,-43.896 -35.102,-80.018 6.115,-36.124 31.631,-62.659 59.482,-64.007 l -14.684,-39.5 c -2.792,-7.512 1.455,-14.233 9.437,-14.934 l 48.257,9.366 c 7.554,2.673 9.555,9.913 4.446,16.086 l -27.056,32.697 c 25.219,10.912 40.084,43.946 34.052,79.578"
       style="fill:#49c7e8;fill-opacity:1;fill-rule:nonzero;stroke:none"
       id="path66"
       inkscape:connector-curvature="0" /><path
       style="fill:#458c5e;fill-opacity:1;fill-rule:nonzero;stroke:none"
       d="m 692.0625,239.21875 c -14.2024,15.17836 -24.97175,35.85517 -29.65625,59.75 -6.05367,30.87555 -0.66259,60.5996 12.71875,82.46875 27.32299,-16.3116 42.7283,-54.7468 35.75,-95.96875 -2.98629,-17.64294 -9.69335,-33.42962 -18.8125,-46.25 z M 699,422.03125 674.34375,450.25 l 22.25,-4.3125 c 9.4425,-3.34125 11.9175,-12.40875 5.53125,-20.125 L 699,422.03125 z"
       transform="matrix(0.8,0,0,-0.8,0,612)"
       id="path3121"
       inkscape:connector-curvature="0" /><path
       style="fill:#dc4327;fill-opacity:1;fill-rule:nonzero;stroke:none"
       d="m 822.40625,302.625 c -31.10758,5.46809 -61.42103,31.29559 -76.625,69.15625 C 729.6912,411.84788 735.18572,453.85381 756.75,479 c 0.11003,-2.06079 -0.22965,-4.28409 -1.03125,-6.625 L 736.625,416.5625 c 38.14,-1.795 73.6825,-37.44125 83.34375,-86.71875 1.81148,-9.23953 2.58163,-18.36119 2.4375,-27.21875 z"
       transform="matrix(0.8,0,0,-0.8,0,612)"
       id="path3909"
       inkscape:connector-curvature="0" /></g></svg>